<svg width="1024" height="1024" viewBox="0 0 1024 1024" fill="none" xmlns="http://www.w3.org/2000/svg">
<path d="M994.517 514.304C994.517 603.414 978.394 687.619 936.772 759.574C893.822 833.806 829.655 893.078 755.434 936.034C683.49 977.662 601.113 1012 511.989 1012C422.865 1012 340.84 977.093 268.896 935.465C196.951 893.836 124.736 836.95 81.8134 762.718C40.1642 690.763 29 603.414 29 514.304C29 425.193 36.8041 335.893 78.4262 263.938C121.376 189.706 190.773 129.378 264.994 86.4214C336.938 44.7931 422.892 12 511.989 12C601.086 12 681.512 54.3058 753.483 95.9341C827.704 138.89 903.008 189.462 945.931 263.721C987.553 335.676 994.517 425.193 994.517 514.304Z" fill="url(#paint0_linear_68_67)"/>
<defs>
<linearGradient id="paint0_linear_68_67" x1="511.759" y1="12" x2="511.759" y2="1012" gradientUnits="userSpaceOnUse">
<stop stop-color="#857BFF"/>
<stop offset="1" stop-color="#6C62DC"/>
</linearGradient>
</defs>
</svg>
